<?xml version="1.0" encoding="UTF-8"?>
<svg width="1277px" height="852px" viewBox="0 0 1277 852" version="1.1" xmlns="http://www.w3.org/2000/svg" xmlns:xlink="http://www.w3.org/1999/xlink">
    <!-- Generator: Sketch 57.1 (83088) - https://sketch.com -->
    <title>Dot Grid Background</title>
    <desc>Created with Sketch.</desc>
    <g id="Home-Drafts" stroke="none" stroke-width="1" fill="none" fill-rule="evenodd">
        <g id="Draft-#1" transform="translate(-82.000000, -24.000000)" fill="#757575">
            <g id="Dot-Grid-Background" transform="translate(82.000000, 24.000000)">
                <g id="Group">
                    <circle id="Oval" cx="86" cy="1" r="1"></circle>
                    <circle id="Oval-Copy-3" cx="341" cy="1" r="1"></circle>
                    <circle id="Oval-Copy-6" cx="596" cy="1" r="1"></circle>
                    <circle id="Oval-Copy-9" cx="851" cy="1" r="1"></circle>
                    <circle id="Oval-Copy-12" cx="1106" cy="1" r="1"></circle>
                    <circle id="Oval-Copy-2" cx="1" cy="1" r="1"></circle>
                    <circle id="Oval-Copy-4" cx="256" cy="1" r="1"></circle>
                    <circle id="Oval-Copy-7" cx="511" cy="1" r="1"></circle>
                    <circle id="Oval-Copy-10" cx="766" cy="1" r="1"></circle>
                    <circle id="Oval-Copy-13" cx="1021" cy="1" r="1"></circle>
                    <circle id="Oval-Copy" cx="171" cy="1" r="1"></circle>
                    <circle id="Oval-Copy-5" cx="426" cy="1" r="1"></circle>
                    <circle id="Oval-Copy-8" cx="681" cy="1" r="1"></circle>
                    <circle id="Oval-Copy-11" cx="936" cy="1" r="1"></circle>
                    <circle id="Oval-Copy-14" cx="1191" cy="1" r="1"></circle>
                    <circle id="Oval-Copy-15" cx="1276" cy="1" r="1"></circle>
                </g>
                <g id="Group-Copy-4" transform="translate(0.000000, 340.000000)">
                    <circle id="Oval" cx="86" cy="1" r="1"></circle>
                    <circle id="Oval-Copy-3" cx="341" cy="1" r="1"></circle>
                    <circle id="Oval-Copy-6" cx="596" cy="1" r="1"></circle>
                    <circle id="Oval-Copy-9" cx="851" cy="1" r="1"></circle>
                    <circle id="Oval-Copy-12" cx="1106" cy="1" r="1"></circle>
                    <circle id="Oval-Copy-2" cx="1" cy="1" r="1"></circle>
                    <circle id="Oval-Copy-4" cx="256" cy="1" r="1"></circle>
                    <circle id="Oval-Copy-7" cx="511" cy="1" r="1"></circle>
                    <circle id="Oval-Copy-10" cx="766" cy="1" r="1"></circle>
                    <circle id="Oval-Copy-13" cx="1021" cy="1" r="1"></circle>
                    <circle id="Oval-Copy" cx="171" cy="1" r="1"></circle>
                    <circle id="Oval-Copy-5" cx="426" cy="1" r="1"></circle>
                    <circle id="Oval-Copy-8" cx="681" cy="1" r="1"></circle>
                    <circle id="Oval-Copy-11" cx="936" cy="1" r="1"></circle>
                    <circle id="Oval-Copy-14" cx="1191" cy="1" r="1"></circle>
                    <circle id="Oval-Copy-15" cx="1276" cy="1" r="1"></circle>
                </g>
                <g id="Group-Copy-2" transform="translate(0.000000, 170.000000)">
                    <circle id="Oval" cx="86" cy="1" r="1"></circle>
                    <circle id="Oval-Copy-3" cx="341" cy="1" r="1"></circle>
                    <circle id="Oval-Copy-6" cx="596" cy="1" r="1"></circle>
                    <circle id="Oval-Copy-9" cx="851" cy="1" r="1"></circle>
                    <circle id="Oval-Copy-12" cx="1106" cy="1" r="1"></circle>
                    <circle id="Oval-Copy-2" cx="1" cy="1" r="1"></circle>
                    <circle id="Oval-Copy-4" cx="256" cy="1" r="1"></circle>
                    <circle id="Oval-Copy-7" cx="511" cy="1" r="1"></circle>
                    <circle id="Oval-Copy-10" cx="766" cy="1" r="1"></circle>
                    <circle id="Oval-Copy-13" cx="1021" cy="1" r="1"></circle>
                    <circle id="Oval-Copy" cx="171" cy="1" r="1"></circle>
                    <circle id="Oval-Copy-5" cx="426" cy="1" r="1"></circle>
                    <circle id="Oval-Copy-8" cx="681" cy="1" r="1"></circle>
                    <circle id="Oval-Copy-11" cx="936" cy="1" r="1"></circle>
                    <circle id="Oval-Copy-14" cx="1191" cy="1" r="1"></circle>
                    <circle id="Oval-Copy-15" cx="1276" cy="1" r="1"></circle>
                </g>
                <g id="Group-Copy-5" transform="translate(0.000000, 510.000000)">
                    <circle id="Oval" cx="86" cy="1" r="1"></circle>
                    <circle id="Oval-Copy-3" cx="341" cy="1" r="1"></circle>
                    <circle id="Oval-Copy-6" cx="596" cy="1" r="1"></circle>
                    <circle id="Oval-Copy-9" cx="851" cy="1" r="1"></circle>
                    <circle id="Oval-Copy-12" cx="1106" cy="1" r="1"></circle>
                    <circle id="Oval-Copy-2" cx="1" cy="1" r="1"></circle>
                    <circle id="Oval-Copy-4" cx="256" cy="1" r="1"></circle>
                    <circle id="Oval-Copy-7" cx="511" cy="1" r="1"></circle>
                    <circle id="Oval-Copy-10" cx="766" cy="1" r="1"></circle>
                    <circle id="Oval-Copy-13" cx="1021" cy="1" r="1"></circle>
                    <circle id="Oval-Copy" cx="171" cy="1" r="1"></circle>
                    <circle id="Oval-Copy-5" cx="426" cy="1" r="1"></circle>
                    <circle id="Oval-Copy-8" cx="681" cy="1" r="1"></circle>
                    <circle id="Oval-Copy-11" cx="936" cy="1" r="1"></circle>
                    <circle id="Oval-Copy-14" cx="1191" cy="1" r="1"></circle>
                    <circle id="Oval-Copy-15" cx="1276" cy="1" r="1"></circle>
                </g>
                <g id="Group-Copy-8" transform="translate(0.000000, 680.000000)">
                    <circle id="Oval" cx="86" cy="1" r="1"></circle>
                    <circle id="Oval-Copy-3" cx="341" cy="1" r="1"></circle>
                    <circle id="Oval-Copy-6" cx="596" cy="1" r="1"></circle>
                    <circle id="Oval-Copy-9" cx="851" cy="1" r="1"></circle>
                    <circle id="Oval-Copy-12" cx="1106" cy="1" r="1"></circle>
                    <circle id="Oval-Copy-2" cx="1" cy="1" r="1"></circle>
                    <circle id="Oval-Copy-4" cx="256" cy="1" r="1"></circle>
                    <circle id="Oval-Copy-7" cx="511" cy="1" r="1"></circle>
                    <circle id="Oval-Copy-10" cx="766" cy="1" r="1"></circle>
                    <circle id="Oval-Copy-13" cx="1021" cy="1" r="1"></circle>
                    <circle id="Oval-Copy" cx="171" cy="1" r="1"></circle>
                    <circle id="Oval-Copy-5" cx="426" cy="1" r="1"></circle>
                    <circle id="Oval-Copy-8" cx="681" cy="1" r="1"></circle>
                    <circle id="Oval-Copy-11" cx="936" cy="1" r="1"></circle>
                    <circle id="Oval-Copy-14" cx="1191" cy="1" r="1"></circle>
                    <circle id="Oval-Copy-15" cx="1276" cy="1" r="1"></circle>
                </g>
                <g id="Group-Copy" transform="translate(0.000000, 85.000000)">
                    <circle id="Oval" cx="86" cy="1" r="1"></circle>
                    <circle id="Oval-Copy-3" cx="341" cy="1" r="1"></circle>
                    <circle id="Oval-Copy-6" cx="596" cy="1" r="1"></circle>
                    <circle id="Oval-Copy-9" cx="851" cy="1" r="1"></circle>
                    <circle id="Oval-Copy-12" cx="1106" cy="1" r="1"></circle>
                    <circle id="Oval-Copy-2" cx="1" cy="1" r="1"></circle>
                    <circle id="Oval-Copy-4" cx="256" cy="1" r="1"></circle>
                    <circle id="Oval-Copy-7" cx="511" cy="1" r="1"></circle>
                    <circle id="Oval-Copy-10" cx="766" cy="1" r="1"></circle>
                    <circle id="Oval-Copy-13" cx="1021" cy="1" r="1"></circle>
                    <circle id="Oval-Copy" cx="171" cy="1" r="1"></circle>
                    <circle id="Oval-Copy-5" cx="426" cy="1" r="1"></circle>
                    <circle id="Oval-Copy-8" cx="681" cy="1" r="1"></circle>
                    <circle id="Oval-Copy-11" cx="936" cy="1" r="1"></circle>
                    <circle id="Oval-Copy-14" cx="1191" cy="1" r="1"></circle>
                    <circle id="Oval-Copy-15" cx="1276" cy="1" r="1"></circle>
                </g>
                <g id="Group-Copy-6" transform="translate(0.000000, 425.000000)">
                    <circle id="Oval" cx="86" cy="1" r="1"></circle>
                    <circle id="Oval-Copy-3" cx="341" cy="1" r="1"></circle>
                    <circle id="Oval-Copy-6" cx="596" cy="1" r="1"></circle>
                    <circle id="Oval-Copy-9" cx="851" cy="1" r="1"></circle>
                    <circle id="Oval-Copy-12" cx="1106" cy="1" r="1"></circle>
                    <circle id="Oval-Copy-2" cx="1" cy="1" r="1"></circle>
                    <circle id="Oval-Copy-4" cx="256" cy="1" r="1"></circle>
                    <circle id="Oval-Copy-7" cx="511" cy="1" r="1"></circle>
                    <circle id="Oval-Copy-10" cx="766" cy="1" r="1"></circle>
                    <circle id="Oval-Copy-13" cx="1021" cy="1" r="1"></circle>
                    <circle id="Oval-Copy" cx="171" cy="1" r="1"></circle>
                    <circle id="Oval-Copy-5" cx="426" cy="1" r="1"></circle>
                    <circle id="Oval-Copy-8" cx="681" cy="1" r="1"></circle>
                    <circle id="Oval-Copy-11" cx="936" cy="1" r="1"></circle>
                    <circle id="Oval-Copy-14" cx="1191" cy="1" r="1"></circle>
                    <circle id="Oval-Copy-15" cx="1276" cy="1" r="1"></circle>
                </g>
                <g id="Group-Copy-3" transform="translate(0.000000, 255.000000)">
                    <circle id="Oval" cx="86" cy="1" r="1"></circle>
                    <circle id="Oval-Copy-3" cx="341" cy="1" r="1"></circle>
                    <circle id="Oval-Copy-6" cx="596" cy="1" r="1"></circle>
                    <circle id="Oval-Copy-9" cx="851" cy="1" r="1"></circle>
                    <circle id="Oval-Copy-12" cx="1106" cy="1" r="1"></circle>
                    <circle id="Oval-Copy-2" cx="1" cy="1" r="1"></circle>
                    <circle id="Oval-Copy-4" cx="256" cy="1" r="1"></circle>
                    <circle id="Oval-Copy-7" cx="511" cy="1" r="1"></circle>
                    <circle id="Oval-Copy-10" cx="766" cy="1" r="1"></circle>
                    <circle id="Oval-Copy-13" cx="1021" cy="1" r="1"></circle>
                    <circle id="Oval-Copy" cx="171" cy="1" r="1"></circle>
                    <circle id="Oval-Copy-5" cx="426" cy="1" r="1"></circle>
                    <circle id="Oval-Copy-8" cx="681" cy="1" r="1"></circle>
                    <circle id="Oval-Copy-11" cx="936" cy="1" r="1"></circle>
                    <circle id="Oval-Copy-14" cx="1191" cy="1" r="1"></circle>
                    <circle id="Oval-Copy-15" cx="1276" cy="1" r="1"></circle>
                </g>
                <g id="Group-Copy-7" transform="translate(0.000000, 595.000000)">
                    <circle id="Oval" cx="86" cy="1" r="1"></circle>
                    <circle id="Oval-Copy-3" cx="341" cy="1" r="1"></circle>
                    <circle id="Oval-Copy-6" cx="596" cy="1" r="1"></circle>
                    <circle id="Oval-Copy-9" cx="851" cy="1" r="1"></circle>
                    <circle id="Oval-Copy-12" cx="1106" cy="1" r="1"></circle>
                    <circle id="Oval-Copy-2" cx="1" cy="1" r="1"></circle>
                    <circle id="Oval-Copy-4" cx="256" cy="1" r="1"></circle>
                    <circle id="Oval-Copy-7" cx="511" cy="1" r="1"></circle>
                    <circle id="Oval-Copy-10" cx="766" cy="1" r="1"></circle>
                    <circle id="Oval-Copy-13" cx="1021" cy="1" r="1"></circle>
                    <circle id="Oval-Copy" cx="171" cy="1" r="1"></circle>
                    <circle id="Oval-Copy-5" cx="426" cy="1" r="1"></circle>
                    <circle id="Oval-Copy-8" cx="681" cy="1" r="1"></circle>
                    <circle id="Oval-Copy-11" cx="936" cy="1" r="1"></circle>
                    <circle id="Oval-Copy-14" cx="1191" cy="1" r="1"></circle>
                    <circle id="Oval-Copy-15" cx="1276" cy="1" r="1"></circle>
                </g>
                <g id="Group-Copy-9" transform="translate(0.000000, 765.000000)">
                    <circle id="Oval" cx="86" cy="1" r="1"></circle>
                    <circle id="Oval-Copy-3" cx="341" cy="1" r="1"></circle>
                    <circle id="Oval-Copy-6" cx="596" cy="1" r="1"></circle>
                    <circle id="Oval-Copy-9" cx="851" cy="1" r="1"></circle>
                    <circle id="Oval-Copy-12" cx="1106" cy="1" r="1"></circle>
                    <circle id="Oval-Copy-2" cx="1" cy="1" r="1"></circle>
                    <circle id="Oval-Copy-4" cx="256" cy="1" r="1"></circle>
                    <circle id="Oval-Copy-7" cx="511" cy="1" r="1"></circle>
                    <circle id="Oval-Copy-10" cx="766" cy="1" r="1"></circle>
                    <circle id="Oval-Copy-13" cx="1021" cy="1" r="1"></circle>
                    <circle id="Oval-Copy" cx="171" cy="1" r="1"></circle>
                    <circle id="Oval-Copy-5" cx="426" cy="1" r="1"></circle>
                    <circle id="Oval-Copy-8" cx="681" cy="1" r="1"></circle>
                    <circle id="Oval-Copy-11" cx="936" cy="1" r="1"></circle>
                    <circle id="Oval-Copy-14" cx="1191" cy="1" r="1"></circle>
                    <circle id="Oval-Copy-15" cx="1276" cy="1" r="1"></circle>
                </g>
                <g id="Group-Copy-10" transform="translate(0.000000, 850.000000)">
                    <circle id="Oval" cx="86" cy="1" r="1"></circle>
                    <circle id="Oval-Copy-3" cx="341" cy="1" r="1"></circle>
                    <circle id="Oval-Copy-6" cx="596" cy="1" r="1"></circle>
                    <circle id="Oval-Copy-9" cx="851" cy="1" r="1"></circle>
                    <circle id="Oval-Copy-12" cx="1106" cy="1" r="1"></circle>
                    <circle id="Oval-Copy-2" cx="1" cy="1" r="1"></circle>
                    <circle id="Oval-Copy-4" cx="256" cy="1" r="1"></circle>
                    <circle id="Oval-Copy-7" cx="511" cy="1" r="1"></circle>
                    <circle id="Oval-Copy-10" cx="766" cy="1" r="1"></circle>
                    <circle id="Oval-Copy-13" cx="1021" cy="1" r="1"></circle>
                    <circle id="Oval-Copy" cx="171" cy="1" r="1"></circle>
                    <circle id="Oval-Copy-5" cx="426" cy="1" r="1"></circle>
                    <circle id="Oval-Copy-8" cx="681" cy="1" r="1"></circle>
                    <circle id="Oval-Copy-11" cx="936" cy="1" r="1"></circle>
                    <circle id="Oval-Copy-14" cx="1191" cy="1" r="1"></circle>
                    <circle id="Oval-Copy-15" cx="1276" cy="1" r="1"></circle>
                </g>
            </g>
        </g>
    </g>
</svg>